<?xml version="1.0" encoding="UTF-8"?>
<svg xmlns="http://www.w3.org/2000/svg"
  xmlns:xlink="http://www.w3.org/1999/xlink" width="450pt" height="153.41pt" viewBox="0 0 450 153.41" version="1.1">
  <defs>
    <symbol id="full" viewBox="0 0 458 178">
      <g style="fill:currentColor">
        <path d="M 73.558594 81.421875 C 73.523438 81.945313 73.488281 82.507813 73.488281 83.105469 L 73.488281 91.980469 L 47.492188 118.007813 C 39.003906 126.496094 26.515625 125.339844 19.746094 115.484375 L 3.222656 91.417969 C -3.546875 81.527344 0.695313 73.421875 12.695313 73.421875 L 61.347656 73.421875 L 64.472656 76.542969 C 67.875 79.984375 70.996094 81.492188 73.558594 81.421875 "/>
        <path d="M 79.859375 12.699219 L 79.859375 61.355469 L 76.75 64.476563 C 73.359375 67.867188 71.789063 71.011719 71.890625 73.566406 C 71.34375 73.53125 70.78125 73.511719 70.191406 73.511719 L 61.320313 73.511719 L 35.277344 47.488281 C 26.796875 39.015625 27.941406 26.53125 37.828125 19.742188 L 61.886719 3.230469 C 71.769531 -3.550781 79.859375 0.703125 79.859375 12.699219 "/>
        <g clip-path="url(#clip1)" clip-rule="nonzero">
          <path d="M 81.449219 79.84375 C 82 79.878906 82.550781 79.898438 83.140625 79.898438 L 92.015625 79.898438 L 118.058594 105.914063 C 126.546875 114.386719 125.394531 126.878906 115.507813 133.660156 L 91.453125 150.179688 C 81.566406 156.964844 73.472656 152.710938 73.472656 140.714844 L 73.472656 92.050781 L 76.585938 88.9375 C 79.976563 85.542969 81.546875 82.398438 81.449219 79.84375 "/>
        </g>
        <path d="M 79.804688 71.921875 C 79.839844 71.378906 79.859375 70.820313 79.859375 70.230469 L 79.859375 61.355469 L 105.875 35.308594 C 114.351563 26.824219 126.839844 27.976563 133.625 37.863281 L 150.144531 61.917969 C 156.925781 71.808594 152.671875 79.898438 140.671875 79.898438 L 92.015625 79.898438 L 88.90625 76.789063 C 85.503906 73.394531 82.359375 71.828125 79.804688 71.921875 "/>
        <path d="M 73.53125 81.480469 C 75.167969 81.417969 76.566406 80.664063 77.625 79.261719 C 78.742188 79.5625 80.015625 79.753906 81.449219 79.84375 C 81.546875 82.398438 79.976563 85.542969 76.585938 88.9375 L 73.472656 92.050781 L 73.472656 83.179688 C 73.472656 82.589844 73.496094 82.027344 73.53125 81.480469 "/>
        <path d="M 81.449219 79.84375 C 81.386719 78.199219 80.636719 76.808594 79.230469 75.746094 C 79.523438 74.628906 79.722656 73.355469 79.804688 71.921875 C 82.359375 71.828125 85.503906 73.394531 88.90625 76.789063 L 92.015625 79.898438 L 83.140625 79.898438 C 82.550781 79.898438 82 79.878906 81.449219 79.84375 "/>
        <path d="M 71.890625 73.566406 C 71.953125 75.203125 72.707031 76.601563 74.105469 77.667969 C 73.808594 78.78125 73.617188 80.054688 73.53125 81.480469 C 70.972656 81.582031 67.828125 80.015625 64.4375 76.625 L 61.320313 73.511719 L 70.191406 73.511719 C 70.78125 73.511719 71.34375 73.53125 71.890625 73.566406 "/>
        <path d="M 79.859375 70.230469 C 79.859375 70.820313 79.839844 71.378906 79.804688 71.921875 C 78.167969 71.992188 76.769531 72.738281 75.707031 74.144531 C 74.589844 73.847656 73.316406 73.648438 71.890625 73.566406 C 71.789063 71.011719 73.359375 67.867188 76.75 64.476563 L 79.859375 61.355469 L 79.859375 70.230469 "/>
        <path d="M 79.230469 75.746094 C 79.523438 74.628906 79.722656 73.355469 79.804688 71.921875 C 78.167969 71.992188 76.769531 72.738281 75.707031 74.144531 C 74.589844 73.847656 73.316406 73.648438 71.890625 73.566406 C 71.953125 75.203125 72.707031 76.601563 74.105469 77.667969 C 73.808594 78.78125 73.617188 80.054688 73.53125 81.480469 C 75.167969 81.417969 76.566406 80.664063 77.625 79.261719 C 78.742188 79.5625 80.015625 79.753906 81.449219 79.84375 C 81.386719 78.199219 80.636719 76.808594 79.230469 75.746094 "/>
      </g>
      <g class="signet" sytle="fill: currentColor">
        <g class="text" style="fill:currentColor">
          <path d="M 234.472656 85.402344 L 231.15625 85.402344 C 230.953125 85.402344 230.785156 85.566406 230.785156 85.773438 L 230.785156 136.726563 C 230.785156 136.929688 230.953125 137.097656 231.15625 137.097656 L 234.472656 137.097656 C 234.679688 137.097656 234.847656 136.929688 234.847656 136.726563 L 234.847656 85.773438 C 234.847656 85.566406 234.679688 85.402344 234.472656 85.402344 Z M 221.066406 133.167969 L 187.855469 133.167969 L 187.855469 113.929688 L 218.535156 113.929688 C 218.742188 113.929688 218.910156 113.761719 218.910156 113.558594 L 218.910156 110.367188 C 218.910156 110.164063 218.742188 109.996094 218.535156 109.996094 L 187.855469 109.996094 L 187.855469 92.445313 L 220.03125 92.445313 C 220.234375 92.445313 220.402344 92.28125 220.402344 92.074219 L 220.402344 88.886719 C 220.402344 88.683594 220.234375 88.515625 220.03125 88.515625 L 184.164063 88.515625 C 183.960938 88.515625 183.792969 88.683594 183.792969 88.886719 L 183.792969 136.726563 C 183.792969 136.929688 183.960938 137.097656 184.164063 137.097656 L 221.066406 137.097656 C 221.273438 137.097656 221.441406 136.929688 221.441406 136.726563 L 221.441406 133.539063 C 221.441406 133.332031 221.273438 133.167969 221.066406 133.167969 Z M 449.089844 123.988281 C 448.503906 122.910156 447.695313 122 446.691406 121.277344 C 445.761719 120.609375 444.675781 120.042969 443.464844 119.585938 C 442.320313 119.164063 441.128906 118.789063 439.90625 118.472656 C 438.679688 118.175781 437.550781 117.867188 436.550781 117.550781 C 435.628906 117.265625 434.84375 116.914063 434.210938 116.503906 C 433.671875 116.15625 433.246094 115.6875 432.941406 115.113281 C 432.632813 114.527344 432.476563 113.6875 432.476563 112.613281 C 432.476563 111.695313 432.664063 110.917969 433.035156 110.308594 C 433.425781 109.660156 433.921875 109.132813 434.511719 108.746094 C 435.136719 108.335938 435.839844 108.035156 436.59375 107.859375 C 437.398438 107.664063 438.167969 107.566406 438.882813 107.566406 C 440.441406 107.566406 441.769531 107.839844 442.835938 108.371094 C 443.90625 108.90625 444.886719 109.75 445.757813 110.882813 L 446.257813 111.539063 C 446.328125 111.632813 446.4375 111.6875 446.554688 111.6875 L 446.675781 111.675781 L 449.585938 109.992188 C 449.675781 109.9375 449.738281 109.851563 449.761719 109.746094 C 449.785156 109.644531 449.761719 109.539063 449.703125 109.457031 L 449.113281 108.609375 C 446.824219 105.351563 443.382813 103.703125 438.882813 103.703125 C 437.640625 103.703125 436.390625 103.882813 435.167969 104.242188 C 433.921875 104.609375 432.796875 105.15625 431.816406 105.867188 C 430.792969 106.609375 429.964844 107.550781 429.355469 108.671875 C 428.734375 109.8125 428.417969 111.160156 428.417969 112.675781 C 428.417969 114.164063 428.667969 115.445313 429.160156 116.484375 C 429.648438 117.523438 430.339844 118.40625 431.203125 119.117188 C 432.027344 119.789063 432.988281 120.339844 434.0625 120.75 C 435.042969 121.132813 436.113281 121.484375 437.253906 121.804688 C 438.238281 122.0625 439.300781 122.351563 440.441406 122.671875 C 441.488281 122.972656 442.457031 123.359375 443.316406 123.828125 C 444.089844 124.25 444.738281 124.820313 445.246094 125.519531 C 445.707031 126.152344 445.9375 127.03125 445.9375 128.121094 C 445.9375 129.058594 445.742188 129.894531 445.355469 130.605469 C 444.949219 131.347656 444.414063 131.96875 443.769531 132.460938 C 443.09375 132.972656 442.332031 133.359375 441.507813 133.617188 C 440.667969 133.878906 439.828125 134.011719 439.015625 134.011719 C 435.363281 134.011719 432.65625 132.707031 430.738281 130.019531 L 430.207031 129.273438 C 430.136719 129.175781 430.023438 129.121094 429.90625 129.121094 L 429.769531 129.132813 L 426.960938 131.003906 C 426.878906 131.0625 426.820313 131.148438 426.800781 131.246094 C 426.78125 131.34375 426.804688 131.449219 426.863281 131.53125 L 427.425781 132.328125 C 428.722656 134.148438 430.390625 135.546875 432.386719 136.488281 C 434.347656 137.410156 436.558594 137.878906 438.949219 137.878906 C 440.429688 137.878906 441.835938 137.65625 443.128906 137.226563 C 444.445313 136.785156 445.625 136.140625 446.636719 135.304688 C 447.664063 134.449219 448.488281 133.398438 449.089844 132.175781 C 449.691406 130.9375 450 129.53125 450 127.992188 C 450 126.4375 449.695313 125.089844 449.089844 123.988281 Z M 184.164063 64.691406 L 187.480469 64.691406 C 187.6875 64.691406 187.855469 64.523438 187.855469 64.320313 L 187.855469 41.585938 L 216.113281 41.585938 L 216.113281 64.320313 C 216.113281 64.523438 216.28125 64.691406 216.484375 64.691406 L 219.800781 64.691406 C 220.007813 64.691406 220.175781 64.523438 220.175781 64.320313 L 220.175781 16.480469 C 220.175781 16.273438 220.007813 16.109375 219.800781 16.109375 L 216.484375 16.109375 C 216.28125 16.109375 216.113281 16.273438 216.113281 16.480469 L 216.113281 37.65625 L 187.855469 37.65625 L 187.855469 16.480469 C 187.855469 16.273438 187.6875 16.109375 187.480469 16.109375 L 184.164063 16.109375 C 183.960938 16.109375 183.792969 16.273438 183.792969 16.480469 L 183.792969 64.320313 C 183.792969 64.523438 183.960938 64.691406 184.164063 64.691406 Z M 250.753906 60.796875 C 250.785156 61.164063 250.8125 61.523438 250.839844 61.871094 C 250.882813 62.546875 250.957031 63.140625 251.058594 63.636719 L 251.210938 64.390625 C 251.246094 64.566406 251.398438 64.691406 251.574219 64.691406 L 254.816406 64.691406 C 254.925781 64.691406 255.03125 64.640625 255.101563 64.558594 C 255.171875 64.472656 255.203125 64.363281 255.183594 64.261719 L 255.011719 63.167969 C 254.886719 62.375 254.769531 61.347656 254.664063 60.113281 C 254.5625 58.882813 254.507813 57.710938 254.507813 56.625 L 254.507813 43.515625 C 254.507813 39.378906 253.367188 36.261719 251.113281 34.253906 C 248.902344 32.289063 245.890625 31.292969 242.15625 31.292969 C 240.328125 31.292969 238.445313 31.636719 236.554688 32.3125 C 234.652344 32.992188 232.929688 34.003906 231.425781 35.320313 L 230.785156 35.878906 C 230.640625 36.007813 230.613281 36.226563 230.726563 36.371094 L 232.609375 39.039063 C 232.730469 39.210938 233 39.238281 233.15625 39.101563 L 233.949219 38.398438 C 235.046875 37.414063 236.3125 36.617188 237.703125 36.03125 C 239.070313 35.453125 240.570313 35.160156 242.15625 35.160156 C 244.675781 35.160156 246.722656 35.828125 248.238281 37.144531 C 249.703125 38.410156 250.445313 40.53125 250.445313 43.449219 L 250.445313 44.535156 L 246.570313 44.535156 C 244.960938 44.535156 243.175781 44.648438 241.261719 44.867188 C 239.257813 45.097656 237.351563 45.601563 235.597656 46.363281 C 233.777344 47.152344 232.230469 48.289063 230.996094 49.734375 C 229.691406 51.273438 229.027344 53.285156 229.027344 55.714844 C 229.027344 57.398438 229.378906 58.894531 230.0625 60.171875 C 230.742188 61.425781 231.644531 62.46875 232.75 63.269531 C 233.816406 64.046875 235.035156 64.636719 236.371094 65.027344 C 237.679688 65.40625 239.011719 65.601563 240.339844 65.601563 C 243 65.601563 245.527344 64.867188 247.847656 63.421875 C 248.964844 62.726563 249.941406 61.847656 250.753906 60.796875 Z M 245.214844 60.667969 C 243.953125 61.375 242.3125 61.734375 240.339844 61.734375 C 239.550781 61.734375 238.6875 61.617188 237.777344 61.386719 C 236.914063 61.164063 236.109375 60.808594 235.390625 60.332031 C 234.722656 59.886719 234.160156 59.277344 233.722656 58.523438 C 233.304688 57.804688 233.089844 56.859375 233.089844 55.714844 C 233.089844 54.148438 233.472656 52.90625 234.230469 52.035156 C 235.0625 51.074219 236.144531 50.324219 237.453125 49.800781 C 238.855469 49.238281 240.417969 48.863281 242.101563 48.683594 C 243.863281 48.496094 245.5625 48.402344 247.15625 48.402344 L 250.445313 48.402344 L 250.445313 49.941406 C 250.445313 51.308594 250.28125 52.726563 249.960938 54.160156 C 249.652344 55.523438 249.097656 56.789063 248.3125 57.917969 C 247.546875 59.019531 246.503906 59.945313 245.214844 60.667969 Z M 357.542969 64.230469 L 354.859375 71.542969 C 354.617188 72.195313 354.335938 72.863281 354.023438 73.523438 C 353.757813 74.09375 353.425781 74.613281 353.03125 75.0625 C 352.664063 75.476563 352.214844 75.824219 351.695313 76.09375 C 350.976563 76.460938 349.914063 76.5625 348.847656 76.359375 C 348.320313 76.257813 348.054688 76.179688 347.945313 76.144531 L 347.035156 75.839844 L 346.914063 75.820313 C 346.757813 75.820313 346.613281 75.921875 346.558594 76.078125 L 345.613281 79.085938 C 345.554688 79.269531 345.652344 79.472656 345.835938 79.542969 L 346.675781 79.859375 C 347.097656 80.015625 347.601563 80.144531 348.222656 80.25 C 348.824219 80.347656 349.34375 80.398438 349.800781 80.398438 C 351.9375 80.398438 353.726563 79.773438 355.117188 78.539063 C 356.421875 77.378906 357.472656 75.75 358.238281 73.695313 L 373.511719 32.699219 C 373.550781 32.585938 373.535156 32.460938 373.464844 32.359375 C 373.394531 32.261719 373.28125 32.203125 373.160156 32.203125 L 369.582031 32.203125 C 369.425781 32.203125 369.285156 32.300781 369.234375 32.449219 L 359.640625 58.804688 L 349.699219 32.445313 C 349.644531 32.300781 349.503906 32.203125 349.351563 32.203125 L 345.761719 32.203125 C 345.640625 32.203125 345.523438 32.265625 345.453125 32.363281 C 345.386719 32.46875 345.371094 32.597656 345.414063 32.710938 Z M 324.914063 108.316406 C 323.996094 106.929688 322.746094 105.800781 321.195313 104.964844 C 319.644531 104.128906 317.742188 103.703125 315.539063 103.703125 C 312.621094 103.703125 309.972656 104.589844 307.671875 106.339844 C 306.28125 107.394531 305.125 108.742188 304.222656 110.351563 C 304.183594 110.25 304.140625 110.148438 304.097656 110.046875 C 303.5625 108.808594 302.84375 107.707031 301.960938 106.773438 C 301.058594 105.824219 299.9375 105.0625 298.621094 104.515625 C 297.320313 103.976563 295.785156 103.703125 294.0625 103.703125 C 292.710938 103.703125 291.378906 103.921875 290.097656 104.355469 C 288.824219 104.789063 287.625 105.4375 286.535156 106.285156 C 285.597656 107.011719 284.734375 107.886719 283.964844 108.886719 L 283.921875 107.503906 C 283.898438 106.820313 283.863281 106.246094 283.816406 105.796875 L 283.734375 104.945313 C 283.714844 104.753906 283.554688 104.613281 283.363281 104.613281 L 280.035156 104.613281 C 279.933594 104.613281 279.832031 104.65625 279.761719 104.734375 C 279.691406 104.808594 279.65625 104.914063 279.664063 105.019531 L 279.769531 106.058594 C 279.8125 106.480469 279.855469 107.007813 279.894531 107.636719 C 279.9375 108.269531 279.96875 108.9375 279.988281 109.632813 L 280.054688 111.746094 C 280.078125 112.421875 280.089844 112.992188 280.089844 113.457031 L 280.089844 136.726563 C 280.089844 136.929688 280.253906 137.097656 280.460938 137.097656 L 283.777344 137.097656 C 283.980469 137.097656 284.148438 136.929688 284.148438 136.726563 L 284.148438 120.855469 C 284.148438 118.707031 284.421875 116.78125 284.960938 115.128906 C 285.488281 113.5 286.222656 112.101563 287.132813 110.976563 C 288.023438 109.875 289.074219 109.023438 290.257813 108.4375 C 291.4375 107.863281 292.714844 107.570313 294.0625 107.570313 C 295.5625 107.570313 296.792969 107.878906 297.714844 108.484375 C 298.6875 109.128906 299.453125 109.929688 299.992188 110.871094 C 300.5625 111.855469 300.957031 112.976563 301.167969 114.199219 C 301.390625 115.5 301.507813 116.738281 301.507813 117.867188 L 301.507813 136.726563 C 301.507813 136.929688 301.671875 137.097656 301.878906 137.097656 L 305.195313 137.097656 C 305.398438 137.097656 305.566406 136.929688 305.566406 136.726563 L 305.566406 120.855469 C 305.566406 118.714844 305.847656 116.792969 306.40625 115.144531 C 306.960938 113.503906 307.703125 112.101563 308.613281 110.976563 C 309.503906 109.875 310.558594 109.023438 311.742188 108.4375 C 312.917969 107.863281 314.195313 107.570313 315.539063 107.570313 C 317.050781 107.570313 318.292969 107.878906 319.238281 108.492188 C 320.238281 109.140625 321.039063 109.949219 321.625 110.902344 C 322.234375 111.890625 322.667969 113.015625 322.914063 114.238281 C 323.179688 115.53125 323.3125 116.753906 323.3125 117.867188 L 323.3125 136.726563 C 323.3125 136.929688 323.480469 137.097656 323.683594 137.097656 L 327 137.097656 C 327.207031 137.097656 327.371094 136.929688 327.371094 136.726563 L 327.371094 117.738281 C 327.371094 116.09375 327.1875 114.445313 326.820313 112.835938 C 326.441406 111.179688 325.800781 109.65625 324.914063 108.316406 Z M 335.167969 60.671875 C 336.59375 59.148438 337.71875 57.324219 338.511719 55.242188 C 339.300781 53.175781 339.699219 50.910156 339.699219 48.511719 C 339.699219 46.070313 339.316406 43.78125 338.554688 41.699219 C 337.78125 39.59375 336.664063 37.753906 335.234375 36.222656 C 333.800781 34.691406 332.066406 33.476563 330.074219 32.605469 C 328.082031 31.738281 325.867188 31.296875 323.492188 31.296875 C 320.398438 31.296875 317.515625 32.128906 314.921875 33.769531 C 313.515625 34.65625 312.269531 35.792969 311.203125 37.15625 L 311.203125 32.574219 C 311.203125 32.371094 311.035156 32.203125 310.828125 32.203125 L 307.457031 32.203125 C 307.25 32.203125 307.085938 32.371094 307.085938 32.574219 L 307.085938 79.894531 C 307.085938 80.101563 307.25 80.265625 307.457031 80.265625 L 310.839844 80.265625 C 311.042969 80.265625 311.210938 80.101563 311.210938 79.894531 L 311.210938 59.871094 C 311.257813 59.933594 311.308594 59.988281 311.355469 60.046875 C 312.382813 61.242188 313.546875 62.261719 314.808594 63.082031 C 316.078125 63.90625 317.46875 64.539063 318.953125 64.964844 C 320.417969 65.386719 321.945313 65.597656 323.492188 65.597656 C 325.820313 65.597656 328.011719 65.15625 330.007813 64.289063 C 331.996094 63.421875 333.734375 62.203125 335.167969 60.671875 Z M 328.53125 60.6875 C 327.050781 61.382813 325.355469 61.734375 323.492188 61.734375 C 321.710938 61.734375 320.054688 61.382813 318.578125 60.6875 C 317.082031 59.988281 315.773438 59.03125 314.683594 57.84375 C 313.589844 56.652344 312.71875 55.230469 312.089844 53.617188 C 311.464844 52.003906 311.144531 50.265625 311.144531 48.445313 C 311.144531 46.628906 311.464844 44.890625 312.089844 43.277344 C 312.71875 41.664063 313.589844 40.242188 314.683594 39.050781 C 315.773438 37.863281 317.082031 36.90625 318.578125 36.203125 C 320.054688 35.511719 321.707031 35.160156 323.492188 35.160156 C 325.351563 35.160156 327.042969 35.519531 328.519531 36.230469 C 330.007813 36.949219 331.292969 37.921875 332.335938 39.121094 C 333.386719 40.328125 334.207031 41.757813 334.777344 43.367188 C 335.351563 44.996094 335.640625 46.726563 335.640625 48.511719 C 335.640625 50.296875 335.351563 52.027344 334.777344 53.652344 C 334.210938 55.257813 333.390625 56.675781 332.34375 57.863281 C 331.308594 59.039063 330.023438 59.988281 328.53125 60.6875 Z M 360.769531 108.640625 C 359.503906 107.164063 357.902344 105.960938 356.007813 105.0625 C 354.105469 104.160156 351.855469 103.703125 349.328125 103.703125 C 347.164063 103.703125 345.105469 104.121094 343.210938 104.949219 C 341.316406 105.773438 339.648438 106.960938 338.25 108.472656 C 336.863281 109.972656 335.757813 111.773438 334.960938 113.824219 C 334.171875 115.871094 333.769531 118.128906 333.769531 120.53125 C 333.769531 123.011719 334.15625 125.34375 334.917969 127.464844 C 335.6875 129.609375 336.804688 131.488281 338.238281 133.039063 C 339.675781 134.59375 341.402344 135.824219 343.382813 136.695313 C 345.359375 137.566406 347.566406 138.007813 349.949219 138.007813 C 352.734375 138.007813 355.238281 137.457031 357.390625 136.371094 C 359.519531 135.296875 361.40625 133.710938 362.996094 131.65625 L 363.539063 130.953125 C 363.660156 130.796875 363.640625 130.574219 363.492188 130.445313 L 361.023438 128.285156 C 360.867188 128.148438 360.605469 128.171875 360.480469 128.335938 L 359.863281 129.148438 C 358.648438 130.753906 357.207031 131.992188 355.578125 132.824219 C 353.960938 133.65625 352.0625 134.074219 349.949219 134.074219 C 347.875 134.074219 346.070313 133.6875 344.578125 132.921875 C 343.066406 132.148438 341.804688 131.121094 340.824219 129.875 C 339.828125 128.601563 339.074219 127.140625 338.582031 125.535156 C 338.214844 124.324219 337.980469 123.085938 337.882813 121.847656 L 364.132813 121.847656 C 364.339844 121.847656 364.503906 121.679688 364.503906 121.476563 L 364.503906 119.296875 C 364.503906 117.394531 364.195313 115.496094 363.59375 113.660156 C 362.976563 111.796875 362.027344 110.109375 360.769531 108.640625 Z M 338.007813 117.980469 C 338.109375 117.308594 338.292969 116.566406 338.546875 115.769531 C 338.972656 114.429688 339.660156 113.117188 340.585938 111.875 C 341.488281 110.664063 342.679688 109.625 344.121094 108.785156 C 345.507813 107.976563 347.230469 107.566406 349.234375 107.566406 C 350.90625 107.566406 352.441406 107.851563 353.792969 108.410156 C 355.128906 108.960938 356.285156 109.753906 357.230469 110.757813 C 358.191406 111.773438 358.964844 113.019531 359.527344 114.457031 C 359.949219 115.53125 360.226563 116.714844 360.359375 117.980469 Z M 289.140625 64.289063 C 291.128906 63.421875 292.867188 62.203125 294.300781 60.671875 C 295.726563 59.148438 296.851563 57.320313 297.644531 55.242188 C 298.433594 53.179688 298.832031 50.914063 298.832031 48.511719 C 298.832031 46.074219 298.445313 43.78125 297.683594 41.699219 C 296.914063 39.597656 295.796875 37.753906 294.363281 36.222656 C 292.933594 34.691406 291.195313 33.476563 289.203125 32.605469 C 287.214844 31.738281 285 31.296875 282.621094 31.296875 C 279.53125 31.296875 276.648438 32.128906 274.050781 33.769531 C 272.648438 34.65625 271.398438 35.792969 270.335938 37.15625 L 270.335938 32.574219 C 270.335938 32.371094 270.167969 32.203125 269.960938 32.203125 L 266.585938 32.203125 C 266.382813 32.203125 266.214844 32.371094 266.214844 32.574219 L 266.214844 79.894531 C 266.214844 80.101563 266.382813 80.265625 266.585938 80.265625 L 269.96875 80.265625 C 270.175781 80.265625 270.339844 80.101563 270.339844 79.894531 L 270.339844 59.875 C 270.390625 59.933594 270.4375 59.988281 270.488281 60.046875 C 271.515625 61.242188 272.679688 62.261719 273.941406 63.082031 C 275.210938 63.90625 276.601563 64.539063 278.085938 64.964844 C 279.550781 65.386719 281.078125 65.597656 282.621094 65.597656 C 284.949219 65.597656 287.144531 65.160156 289.140625 64.289063 Z M 277.710938 60.6875 C 276.214844 59.988281 274.902344 59.03125 273.816406 57.84375 C 272.722656 56.652344 271.851563 55.230469 271.222656 53.617188 C 270.59375 52.003906 270.277344 50.265625 270.277344 48.445313 C 270.277344 46.628906 270.59375 44.890625 271.222656 43.277344 C 271.851563 41.664063 272.722656 40.242188 273.8125 39.050781 C 274.902344 37.863281 276.214844 36.90625 277.710938 36.203125 C 279.1875 35.511719 280.839844 35.160156 282.621094 35.160156 C 284.484375 35.160156 286.175781 35.519531 287.648438 36.230469 C 289.140625 36.949219 290.425781 37.921875 291.46875 39.121094 C 292.519531 40.328125 293.339844 41.757813 293.90625 43.367188 C 294.480469 44.992188 294.769531 46.726563 294.769531 48.511719 C 294.769531 50.296875 294.480469 52.027344 293.90625 53.65625 C 293.339844 55.257813 292.523438 56.675781 291.476563 57.863281 C 290.433594 59.039063 289.152344 59.992188 287.664063 60.6875 C 286.183594 61.382813 284.488281 61.734375 282.621094 61.734375 C 280.839844 61.734375 279.1875 61.382813 277.710938 60.6875 Z M 269.878906 108.640625 C 268.613281 107.164063 267.011719 105.960938 265.117188 105.0625 C 263.214844 104.160156 260.964844 103.703125 258.4375 103.703125 C 256.273438 103.703125 254.214844 104.121094 252.316406 104.949219 C 250.425781 105.773438 248.753906 106.960938 247.355469 108.472656 C 245.96875 109.972656 244.863281 111.773438 244.070313 113.824219 C 243.277344 115.867188 242.878906 118.125 242.878906 120.53125 C 242.878906 123.015625 243.265625 125.347656 244.023438 127.464844 C 244.792969 129.609375 245.910156 131.488281 247.347656 133.039063 C 248.78125 134.59375 250.511719 135.824219 252.488281 136.695313 C 254.46875 137.566406 256.675781 138.007813 259.054688 138.007813 C 261.84375 138.007813 264.347656 137.457031 266.496094 136.371094 C 268.628906 135.296875 270.515625 133.707031 272.101563 131.65625 L 272.652344 130.949219 C 272.765625 130.792969 272.742188 130.570313 272.597656 130.445313 L 270.128906 128.285156 C 269.972656 128.144531 269.703125 128.175781 269.585938 128.335938 L 268.972656 129.148438 C 267.757813 130.753906 266.316406 131.988281 264.683594 132.824219 C 263.066406 133.65625 261.171875 134.074219 259.054688 134.074219 C 256.984375 134.074219 255.175781 133.6875 253.683594 132.921875 C 252.175781 132.148438 250.910156 131.121094 249.933594 129.875 C 248.933594 128.601563 248.179688 127.140625 247.691406 125.535156 C 247.320313 124.324219 247.085938 123.089844 246.988281 121.847656 L 273.238281 121.847656 C 273.445313 121.847656 273.609375 121.679688 273.609375 121.476563 L 273.609375 119.296875 C 273.609375 117.390625 273.304688 115.496094 272.699219 113.660156 C 272.082031 111.792969 271.132813 110.105469 269.878906 108.640625 Z M 247.113281 117.980469 C 247.21875 117.308594 247.398438 116.566406 247.652344 115.769531 C 248.082031 114.425781 248.769531 113.113281 249.695313 111.875 C 250.597656 110.660156 251.785156 109.621094 253.226563 108.785156 C 254.617188 107.976563 256.335938 107.566406 258.339844 107.566406 C 260.015625 107.566406 261.550781 107.851563 262.898438 108.410156 C 264.234375 108.964844 265.390625 109.753906 266.339844 110.757813 C 267.300781 111.777344 268.070313 113.019531 268.632813 114.457031 C 269.054688 115.527344 269.335938 116.707031 269.464844 117.980469 Z M 421.191406 133.070313 L 419.984375 133.515625 C 419.144531 133.84375 418.191406 134.011719 417.152344 134.011719 C 415.851563 134.011719 414.8125 133.675781 414.070313 133.011719 C 413.371094 132.394531 413.019531 131.25 413.019531 129.617188 L 413.019531 108.476563 L 421.410156 108.476563 C 421.613281 108.476563 421.78125 108.308594 421.78125 108.105469 L 421.78125 104.984375 C 421.78125 104.777344 421.613281 104.613281 421.410156 104.613281 L 413.019531 104.613281 L 413.019531 96.222656 C 413.019531 96.015625 412.851563 95.847656 412.648438 95.847656 L 409.328125 95.847656 C 409.125 95.847656 408.957031 96.015625 408.957031 96.222656 L 408.957031 104.613281 L 402.90625 104.613281 C 402.699219 104.613281 402.53125 104.777344 402.53125 104.984375 L 402.53125 108.105469 C 402.53125 108.308594 402.699219 108.476563 402.90625 108.476563 L 409.023438 108.476563 L 409.023438 129.617188 C 409.023438 131.890625 409.613281 133.828125 410.78125 135.375 C 412.035156 137.035156 414.070313 137.878906 416.828125 137.878906 C 417.550781 137.878906 418.308594 137.804688 419.085938 137.660156 C 419.859375 137.515625 420.5625 137.3125 421.164063 137.0625 L 421.863281 136.773438 C 422.019531 136.707031 422.117188 136.535156 422.085938 136.363281 L 421.558594 133.375 C 421.527344 133.199219 421.371094 133.070313 421.191406 133.070313 Z M 395.632813 108.300781 C 394.691406 106.917969 393.417969 105.792969 391.851563 104.960938 C 390.277344 104.125 388.324219 103.703125 386.042969 103.703125 C 384.609375 103.703125 383.207031 103.921875 381.875 104.351563 C 380.535156 104.78125 379.273438 105.421875 378.125 106.257813 C 377.085938 107.019531 376.136719 107.933594 375.296875 108.984375 L 375.253906 107.503906 C 375.230469 106.820313 375.195313 106.246094 375.148438 105.796875 L 375.066406 104.945313 C 375.046875 104.753906 374.886719 104.613281 374.695313 104.613281 L 371.367188 104.613281 C 371.261719 104.613281 371.160156 104.65625 371.09375 104.734375 C 371.019531 104.8125 370.988281 104.917969 371 105.019531 L 371.101563 106.058594 C 371.144531 106.480469 371.1875 107.007813 371.226563 107.636719 C 371.269531 108.269531 371.300781 108.9375 371.324219 109.632813 L 371.386719 111.746094 C 371.410156 112.421875 371.421875 112.992188 371.421875 113.457031 L 371.421875 136.726563 C 371.421875 136.929688 371.585938 137.097656 371.792969 137.097656 L 375.109375 137.097656 C 375.3125 137.097656 375.480469 136.929688 375.480469 136.726563 L 375.480469 120.855469 C 375.480469 118.71875 375.773438 116.800781 376.347656 115.15625 C 376.921875 113.519531 377.691406 112.121094 378.644531 110.996094 C 379.570313 109.894531 380.6875 109.039063 381.953125 108.453125 C 383.222656 107.867188 384.597656 107.570313 386.042969 107.570313 C 387.640625 107.570313 388.957031 107.882813 389.949219 108.503906 C 390.992188 109.15625 391.824219 109.964844 392.425781 110.917969 C 393.046875 111.890625 393.472656 113.003906 393.703125 114.21875 C 393.945313 115.515625 394.070313 116.746094 394.070313 117.871094 L 394.070313 136.726563 C 394.070313 136.929688 394.238281 137.097656 394.441406 137.097656 L 397.761719 137.097656 C 397.964844 137.097656 398.128906 136.929688 398.128906 136.726563 L 398.128906 117.738281 C 398.128906 116.089844 397.945313 114.441406 397.578125 112.835938 C 397.195313 111.167969 396.542969 109.644531 395.632813 108.300781 "/>
        </g>
      </g>
    </symbol>

    <symbol id="signet" viewBox="0 0 160 160">
      <g style="fill:currentColor">
        <path d="M 73.558594 81.421875 C 73.523438 81.945313 73.488281 82.507813 73.488281 83.105469 L 73.488281 91.980469 L 47.492188 118.007813 C 39.003906 126.496094 26.515625 125.339844 19.746094 115.484375 L 3.222656 91.417969 C -3.546875 81.527344 0.695313 73.421875 12.695313 73.421875 L 61.347656 73.421875 L 64.472656 76.542969 C 67.875 79.984375 70.996094 81.492188 73.558594 81.421875 "/>
        <path d="M 79.859375 12.699219 L 79.859375 61.355469 L 76.75 64.476563 C 73.359375 67.867188 71.789063 71.011719 71.890625 73.566406 C 71.34375 73.53125 70.78125 73.511719 70.191406 73.511719 L 61.320313 73.511719 L 35.277344 47.488281 C 26.796875 39.015625 27.941406 26.53125 37.828125 19.742188 L 61.886719 3.230469 C 71.769531 -3.550781 79.859375 0.703125 79.859375 12.699219 "/>
        <g clip-path="url(#clip1)" clip-rule="nonzero">
          <path d="M 81.449219 79.84375 C 82 79.878906 82.550781 79.898438 83.140625 79.898438 L 92.015625 79.898438 L 118.058594 105.914063 C 126.546875 114.386719 125.394531 126.878906 115.507813 133.660156 L 91.453125 150.179688 C 81.566406 156.964844 73.472656 152.710938 73.472656 140.714844 L 73.472656 92.050781 L 76.585938 88.9375 C 79.976563 85.542969 81.546875 82.398438 81.449219 79.84375 "/>
        </g>
        <path d="M 79.804688 71.921875 C 79.839844 71.378906 79.859375 70.820313 79.859375 70.230469 L 79.859375 61.355469 L 105.875 35.308594 C 114.351563 26.824219 126.839844 27.976563 133.625 37.863281 L 150.144531 61.917969 C 156.925781 71.808594 152.671875 79.898438 140.671875 79.898438 L 92.015625 79.898438 L 88.90625 76.789063 C 85.503906 73.394531 82.359375 71.828125 79.804688 71.921875 "/>
        <path d="M 73.53125 81.480469 C 75.167969 81.417969 76.566406 80.664063 77.625 79.261719 C 78.742188 79.5625 80.015625 79.753906 81.449219 79.84375 C 81.546875 82.398438 79.976563 85.542969 76.585938 88.9375 L 73.472656 92.050781 L 73.472656 83.179688 C 73.472656 82.589844 73.496094 82.027344 73.53125 81.480469 "/>
        <path d="M 81.449219 79.84375 C 81.386719 78.199219 80.636719 76.808594 79.230469 75.746094 C 79.523438 74.628906 79.722656 73.355469 79.804688 71.921875 C 82.359375 71.828125 85.503906 73.394531 88.90625 76.789063 L 92.015625 79.898438 L 83.140625 79.898438 C 82.550781 79.898438 82 79.878906 81.449219 79.84375 "/>
        <path d="M 71.890625 73.566406 C 71.953125 75.203125 72.707031 76.601563 74.105469 77.667969 C 73.808594 78.78125 73.617188 80.054688 73.53125 81.480469 C 70.972656 81.582031 67.828125 80.015625 64.4375 76.625 L 61.320313 73.511719 L 70.191406 73.511719 C 70.78125 73.511719 71.34375 73.53125 71.890625 73.566406 "/>
        <path d="M 79.859375 70.230469 C 79.859375 70.820313 79.839844 71.378906 79.804688 71.921875 C 78.167969 71.992188 76.769531 72.738281 75.707031 74.144531 C 74.589844 73.847656 73.316406 73.648438 71.890625 73.566406 C 71.789063 71.011719 73.359375 67.867188 76.75 64.476563 L 79.859375 61.355469 L 79.859375 70.230469 "/>
        <path d="M 79.230469 75.746094 C 79.523438 74.628906 79.722656 73.355469 79.804688 71.921875 C 78.167969 71.992188 76.769531 72.738281 75.707031 74.144531 C 74.589844 73.847656 73.316406 73.648438 71.890625 73.566406 C 71.953125 75.203125 72.707031 76.601563 74.105469 77.667969 C 73.808594 78.78125 73.617188 80.054688 73.53125 81.480469 C 75.167969 81.417969 76.566406 80.664063 77.625 79.261719 C 78.742188 79.5625 80.015625 79.753906 81.449219 79.84375 C 81.386719 78.199219 80.636719 76.808594 79.230469 75.746094 "/>
      </g>
    </symbol>
  </defs>
</svg>